#!OML:ASF H:\Dans Jumps\Project 1\Capture day 1\Session 1\subject.ASF
:FULLY-SPECIFIED
:DEGREES
514
root 0.155424 17.9323 -4.91896 18.7018 -0.606054 -1.33231
lowerback 4.15712 0.548699 -1.63449
upperback 5.76871 0.668107 1.33685
thorax 3.584 0.238089 2.28839
lowerneck -12.8879 -0.0478467 -0.161625
upperneck 26.0921 0.0276752 -0.206391
head 10.4745 -0.026486 -0.042171
rclavicle -4.57205e-015 -2.68359e-015
rhumerus -35.7378 0.00969148 -83.7154
rradius 42.3417
rwrist 19.4087
rhand -27.8938 -30.3419
rfingers 7.12502
rthumb -1.28333 -60.3178
lclavicle -4.57205e-015 -2.68359e-015
lhumerus -40.5809 -12.1628 90.136
lradius 50.5562
lwrist 33.6103
lhand -30.0925 -8.79161
lfingers 7.12502
lthumb -3.40683 21.1609
rfemur -24.286 -4.43981 21.1514
rtibia 20.2381
rfoot -12.1966 -3.00742
rtoes 19.0885
lfemur -23.6468 6.87661 -19.3928
ltibia 19.4123
lfoot -10.0018 2.65791
ltoes 6.92112
515
root 0.152091 17.9192 -4.92196 18.6334 -0.64769 -1.32823
lowerback 4.0585 0.534875 -1.62387
upperback 5.75142 0.651099 1.33625
thorax 3.62222 0.229737 2.28286
lowerneck -12.8941 -0.0191751 -0.162517
upperneck 26.1287 0.0698936 -0.213604
head 10.4893 -0.00839644 -0.0393019
rclavicle -1.98785e-016 -1.98785e-016
rhumerus -35.7854 0.0233322 -83.7102
rradius 42.388
rwrist 19.3379
rhand -27.854 -30.3089
rfingers 7.12502
rthumb -1.24491 -60.285
lclavicle -1.98785e-016 -1.98785e-016
lhumerus -40.5098 -12.156 90.1134
lradius 50.6831
lwrist 33.5042
lhand -30.0556 -8.83338
lfingers 7.12502
lthumb -3.37116 21.1197
rfemur -24.2091 -4.43401 21.1668
rtibia 20.2363
rfoot -12.407 -3.06315
rtoes 19.1777
lfemur -23.5076 6.93112 -19.3992
ltibia 19.3116
lfoot -10.2056 2.73624
ltoes 7.12737
516
root 0.148905 17.9056 -4.92553 18.5687 -0.686808 -1.32299
lowerback 3.96533 0.520982 -1.6136
upperback 5.73183 0.633896 1.33623
thorax 3.65502 0.221351 2.27802
lowerneck -12.9061 0.00777846 -0.159394
upperneck 26.168 0.109549 -0.22369
head 10.5061 0.00857116 -0.0384588
rclavicle -2.98177e-015 -6.4605e-015
rhumerus -35.8377 0.0225918 -83.693
rradius 42.4297
rwrist 19.2605
rhand -27.8169 -30.2746
rfingers 7.12502
rthumb -1.2091 -60.2509
lclavicle -2.98177e-015 -6.4605e-015
lhumerus -40.4457 -12.1534 90.0957
lradius 50.7999
lwrist 33.405
lhand -30.0213 -8.86029
lfingers 7.12502
lthumb -3.33799 21.0933
rfemur -24.1568 -4.4338 21.1821
rtibia 20.2692
rfoot -12.6199 -3.11833
rtoes 19.2293
lfemur -23.3589 6.97344 -19.4103
ltibia 19.1812
lfoot -10.4036 2.84484
ltoes 7.3402
517
root 0.14603 17.8923 -4.92978 18.502 -0.724386 -1.32042
lowerback 3.887 0.506026 -1.60016
upperback 5.71089 0.615065 1.33848
thorax 3.67815 0.212352 2.27354
lowerneck -12.9244 0.0375355 -0.150728
upperneck 26.2108 0.153546 -0.240091
head 10.5255 0.0272892 -0.0402563
rclavicle 9.93923e-015 2.23633e-014
rhumerus -35.8933 0.0146234 -83.6651
rradius 42.464
rwrist 19.189
rhand -27.7729 -30.2492
rfingers 7.12502
rthumb -1.16655 -60.2257
lclavicle 9.93923e-015 2.23633e-014
lhumerus -40.3862 -12.1453 90.0822
lradius 50.907
lwrist 33.3114
lhand -29.9787 -8.86967
lfingers 7.12502
lthumb -3.29692 21.0846
rfemur -24.1267 -4.44304 21.1993
rtibia 20.341
rfoot -12.8211 -3.15601
rtoes 19.252
lfemur -23.192 6.99434 -19.4195
ltibia 19.0163
lfoot -10.5808 2.99159
ltoes 7.52964
518
root 0.143794 17.8801 -4.93507 18.4332 -0.759595 -1.32245
lowerback 3.82581 0.4948 -1.57663
upperback 5.69107 0.601058 1.34148
thorax 3.69263 0.206227 2.26395
lowerneck -12.9386 0.0615216 -0.143739
upperneck 26.2484 0.188818 -0.252572
head 10.5422 0.0423616 -0.04146
rclavicle 1.59028e-015 -3.47873e-015
rhumerus -35.9296 -0.0188199 -83.622
rradius 42.4656
rwrist 19.1218
rhand -27.7248 -30.2093
rfingers 7.12502
rthumb -1.12016 -60.1861
lclavicle 1.59028e-015 -3.47873e-015
lhumerus -40.326 -12.1317 90.0784
lradius 51.0061
lwrist 33.2097
lhand -29.9717 -8.78821
lfingers 7.12502
lthumb -3.2901 21.1661
rfemur -24.1191 -4.46497 21.2189
rtibia 20.4467
rfoot -12.995 -3.16193
rtoes 19.2656
lfemur -23.0134 6.99266 -19.4259
ltibia 18.8238
lfoot -10.7216 3.17433
ltoes 7.66029
519
root 0.142242 17.8698 -4.94148 18.3583 -0.80187 -1.33959
lowerback 3.78442 0.487707 -1.53957
upperback 5.67572 0.592259 1.35005
thorax 3.70044 0.203125 2.25233
lowerneck -12.967 0.0865498 -0.122132
upperneck 26.2943 0.227296 -0.284172
head 10.5648 0.0580541 -0.0515686
rclavicle -5.46658e-015 -1.67973e-014
rhumerus -35.9512 -0.06429 -83.565
rradius 42.4455
rwrist 19.0737
rhand -27.6736 -30.1767
rfingers 7.12502
rthumb -1.07066 -60.1538
lclavicle -5.46658e-015 -1.67973e-014
lhumerus -40.2575 -12.1002 90.0841
lradius 51.0868
lwrist 33.118
lhand -29.9795 -8.70608
lfingers 7.12502
lthumb -3.29768 21.2482
rfemur -24.1219 -4.49369 21.2482
rtibia 20.568
rfoot -13.1274 -3.12155
rtoes 19.2745
lfemur -22.8293 6.97339 -19.4188
ltibia 18.6253
lfoot -10.8197 3.39528
ltoes 7.72966
520
root 0.141339 17.8618 -4.94931 18.2768 -0.856212 -1.37832
lowerback 3.76624 0.485933 -1.48826
upperback 5.66788 0.59014 1.36671
thorax 3.70275 0.203701 2.24086
lowerneck -12.9925 0.112743 -0.105751
upperneck 26.3275 0.267582 -0.311916
head 10.5822 0.0745124 -0.0591687
rclavicle 2.98177e-015 7.45443e-015
rhumerus -35.9425 -0.122597 -83.4938
rradius 42.3928
rwrist 19.0609
rhand -27.6152 -30.1533
rfingers 7.12502
rthumb -1.01423 -60.1306
lclavicle 2.98177e-015 7.45443e-015
lhumerus -40.1702 -12.0365 90.0971
lradius 51.1426
lwrist 33.0148
lhand -29.9962 -8.60571
lfingers 7.12502
lthumb -3.31377 21.3483
rfemur -24.1237 -4.51512 21.2905
rtibia 20.6822
rfoot -13.2087 -3.03742
rtoes 19.2938
lfemur -22.655 6.93874 -19.39
ltibia 18.4507
lfoot -10.877 3.65008
ltoes 7.7582
521
root 0.140964 17.8563 -4.95848 18.1868 -0.923414 -1.444
lowerback 3.7691 0.490274 -1.42068
upperback 5.67332 0.595767 1.39279
thorax 3.70676 0.208404 2.22987
lowerneck -13.0162 0.135488 -0.0946475
upperneck 26.3422 0.303085 -0.335509
head 10.5924 0.0887869 -0.064981
rclavicle 1.59028e-015 6.75868e-015
rhumerus -35.8884 -0.197131 -83.4097
rradius 42.2988
rwrist 19.0871
rhand -27.5483 -30.1352
rfingers 7.12502
rthumb -0.94968 -60.1128
lclavicle 1.59028e-015 6.75868e-015
lhumerus -40.0539 -11.9378 90.1164
lradius 51.1578
lwrist 32.8874
lhand -30.0365 -8.52745
lfingers 7.12502
lthumb -3.35268 21.4259
rfemur -24.1096 -4.52272 21.3517
rtibia 20.7674
rfoot -13.2386 -2.91797
rtoes 19.3171
lfemur -22.5031 6.89328 -19.3311
ltibia 18.3295
lfoot -10.8989 3.92946
ltoes 7.75832
522
root 0.140873 17.8531 -4.96876 18.0916 -1.00251 -1.53122
lowerback 3.79072 0.499388 -1.3446
upperback 5.68928 0.607399 1.42604
thorax 3.71096 0.216164 2.22139
lowerneck -13.0429 0.157594 -0.0823942
upperneck 26.3438 0.337262 -0.358864
head 10.5984 0.102602 -0.0710632
rclavicle -1.19271e-015 1.68967e-015
rhumerus -35.8021 -0.283206 -83.3165
rradius 42.1767
rwrist 19.1461
rhand -27.4827 -30.1164
rfingers 7.12502
rthumb -0.886333 -60.0943
lclavicle -1.19271e-015 1.68967e-015
lhumerus -39.9107 -11.8047 90.1373
lradius 51.1287
lwrist 32.7345
lhand -30.0815 -8.44705
lfingers 7.12502
lthumb -3.39616 21.5056
rfemur -24.0754 -4.51169 21.4279
rtibia 20.8137
rfoot -13.2224 -2.78072
rtoes 19.3275
lfemur -22.3834 6.84393 -19.2459
ltibia 18.2772
lfoot -10.903 4.21358
ltoes 7.77658
523
root 0.140746 17.8516 -4.97964 17.9967 -1.08952 -1.62748
lowerback 3.82511 0.511133 -1.27193
upperback 5.7117 0.622314 1.46122
thorax 3.71459 0.225331 2.21674
lowerneck -13.071 0.178908 -0.0636157
upperneck 26.3359 0.368773 -0.382723
head 10.6012 0.115787 -0.0787744
rclavicle 1.98785e-015 -7.05686e-015
rhumerus -35.6902 -0.386974 -83.2182
rradius 42.0319
rwrist 19.2367
rhand -27.4096 -30.1039
rfingers 7.12502
rthumb -0.815677 -60.082
lclavicle 1.98785e-015 -7.05686e-015
lhumerus -39.7474 -11.6413 90.1532
lradius 51.0565
lwrist 32.558
lhand -30.1302 -8.34129
lfingers 7.12502
lthumb -3.44318 21.6106
rfemur -24.0255 -4.48389 21.5096
rtibia 20.8251
rfoot -13.1757 -2.64449
rtoes 19.3222
lfemur -22.2979 6.79832 -19.1461
ltibia 18.2894
lfoot -10.8994 4.47478
ltoes 7.82489
524
root 0.140194 17.8512 -4.99051 17.9091 -1.18177 -1.71142
lowerback 3.85959 0.523548 -1.22254
upperback 5.73732 0.638022 1.49055
thorax 3.72138 0.234059 2.21912
lowerneck -13.1008 0.198472 -0.0403367
upperneck 26.3211 0.394862 -0.400094
head 10.6017 0.12771 -0.0856234
rclavicle 3.97569e-016 7.25564e-015
rhumerus -35.5654 -0.513968 -83.119
rradius 41.875
rwrist 19.3477
rhand -27.3411 -30.0807
rfingers 7.12502
rthumb -0.749567 -60.0592
lclavicle 3.97569e-016 7.25564e-015
lhumerus -39.5708 -11.4605 90.158
lradius 50.9413
lwrist 32.3785
lhand -30.1595 -8.24378
lfingers 7.12502
lthumb -3.47146 21.7077
rfemur -23.9745 -4.44366 21.5781
rtibia 20.8191
rfoot -13.1173 -2.52625
rtoes 19.3096
lfemur -22.2417 6.76824 -19.0554
ltibia 18.3441
lfoot -10.8996 4.68569
ltoes 7.90929
